<svg xmlns="http://www.w3.org/2000/svg" viewBox="0 0 44 48">
   <defs>
      <style>.cls-1{fill:none;stroke:#9c4e07;stroke-miterlimit:10;stroke-width:2.5px}</style>
   </defs>
   <path class="cls-1" d="M2.56 7.61h38.89V46.5H2.56z"/>
   <path class="cls-1" d="M41.44 34.35H29.29V46.5M41.44 34.35L29.29 46.5M2.56 17.34h38.88M17.77 12.58h-3.65a3.64 3.64 0 0 1-3.64-3.64V5.15a3.64 3.64 0 0 1 3.64-3.65 3.64 3.64 0 0 1 3.65 3.65v2.46M33.52 12.58h-3.64a3.64 3.64 0 0 1-3.65-3.64V5.15a3.64 3.64 0 0 1 3.65-3.65 3.64 3.64 0 0 1 3.64 3.65v2.46"/>
</svg>