<svg xmlns="http://www.w3.org/2000/svg" viewBox="0 0 44 48">
   <defs>
      <style>.cls-1{fill:none;stroke:#9c4e07;stroke-miterlimit:10;stroke-width:2.5px}</style>
   </defs>
   <path class="cls-1" d="M11.34 17.04V4h20.93v25.83"/>
   <path class="cls-1" d="M2 17.04h20V44H2zM7 36.52v4M7 31.19v4M7 25.85v4M7 20.52v4M12 36.52v4M12 31.19v4M12 25.85v4M12 20.52v4M17 36.52v4M17 31.19v4M17 25.85v4M17 20.52v4M22 29.83h20V44H22zM38.46 34.58H25.54M38.46 39.33H25.54M28.8 8.92H14.81M28.8 17.04h-3.5M28.8 21.11h-3.5M28.8 25.17h-3.5M28.8 12.98H14.81"/>
</svg>