<svg fill="#dae1e7" width="96" height="24" xmlns="http://www.w3.org/2000/svg">
   <path d="M80.128 17.346V7.458h4.76v9.305c0 2.171 1.06 3.436 3.149 3.436 1.78 0 3.253-1.167 3.253-3.89V7.46h4.69v16.209h-4.657v-1.783c-1.13 1.297-2.773 2.108-4.723 2.108-4.041 0-6.472-2.464-6.472-6.647M73.182 15.53c0-2.399-1.848-4.345-4.382-4.345-2.601 0-4.587 1.849-4.587 4.345 0 2.497 1.986 4.378 4.587 4.378 2.534 0 4.382-1.978 4.382-4.378zm-13.556.033c0-5.738 4.45-8.43 8.318-8.43 2.226 0 3.973.779 5.102 1.913V0h4.69v23.668h-4.69v-1.816c-1.13 1.265-2.945 2.141-5.17 2.141-3.629 0-8.25-2.724-8.25-8.43zM53.707 15.563c0-2.302-1.917-4.215-4.314-4.215-2.43 0-4.28 1.913-4.28 4.215 0 2.302 1.85 4.215 4.28 4.215 2.397 0 4.314-1.913 4.314-4.215zm-13.18 0c0-4.668 3.936-8.43 8.866-8.43s8.867 3.762 8.867 8.43c0 4.669-3.936 8.43-8.867 8.43-4.93 0-8.867-3.761-8.867-8.43zM34.711 15.53c0-2.496-1.986-4.345-4.587-4.345-2.534 0-4.383 1.946-4.383 4.345 0 2.4 1.85 4.378 4.383 4.378 2.601 0 4.587-1.88 4.587-4.378zm-8.833 6.387v1.75h-4.69V0h4.69v9.242c1.096-1.265 2.842-2.11 5.136-2.11 3.868 0 8.284 2.693 8.284 8.431 0 5.706-4.587 8.43-8.216 8.43-2.26 0-4.108-.811-5.204-2.076zM13.558 15.53c0-2.399-1.85-4.345-4.382-4.345-2.603 0-4.589 1.849-4.589 4.345 0 2.497 1.986 4.378 4.589 4.378 2.532 0 4.382-1.978 4.382-4.378zM0 15.563c0-5.738 4.451-8.43 8.319-8.43 2.225 0 3.972.779 5.102 1.913V7.458h4.69v16.21h-4.69v-1.816c-1.13 1.265-2.945 2.141-5.17 2.141C4.62 23.993 0 21.27 0 15.563z"/>
</svg>